<?xml version="1.0" encoding="UTF-8"?>
<!DOCTYPE svg PUBLIC "-//W3C//DTD SVG 1.1//EN" "http://www.w3.org/Graphics/SVG/1.1/DTD/svg11.dtd">
<!--Generated by Origin-->
<svg xmlns="http://www.w3.org/2000/svg" xmlns:xlink="http://www.w3.org/1999/xlink" xmlns:olab="http://www.originlab.com/namespaces/olab" viewBox="0,0 952,717" width="251.629837mm" height="189.399712mm">
	<svg xmlns="http://www.w3.org/2000/svg" xmlns:xlink="http://www.w3.org/1999/xlink" xmlns:olab="http://www.originlab.com/namespaces/olab" viewBox="0,0 5944.99,4474.99" width="950.999" height="714.999" x="6.10351e-05" y="6.10351e-05" preserveAspectRatio="none">
		<polyline points="4323,3733 4323,3628" style="stroke: #000080;stroke-width: 21;stroke-linecap:butt;stroke-linejoin:round" fill="none" olab:comment=""/>
		<polyline points="4323,3576 4323,3539" style="stroke: #000080;stroke-width: 21;stroke-linecap:butt;stroke-linejoin:round" fill="none" olab:comment=""/>
		<polyline points="4323,3487 4323,3450" style="stroke: #000080;stroke-width: 21;stroke-linecap:butt;stroke-linejoin:round" fill="none" olab:comment=""/>
		<polyline points="4323,3397 4323,3292" style="stroke: #000080;stroke-width: 21;stroke-linecap:butt;stroke-linejoin:round" fill="none" olab:comment=""/>
		<polyline points="4323,3240 4323,3203" style="stroke: #000080;stroke-width: 21;stroke-linecap:butt;stroke-linejoin:round" fill="none" olab:comment=""/>
		<polyline points="4323,3151 4323,3114" style="stroke: #000080;stroke-width: 21;stroke-linecap:butt;stroke-linejoin:round" fill="none" olab:comment=""/>
		<polyline points="4323,3061 4323,2956" style="stroke: #000080;stroke-width: 21;stroke-linecap:butt;stroke-linejoin:round" fill="none" olab:comment=""/>
		<polyline points="4323,2904 4323,2867" style="stroke: #000080;stroke-width: 21;stroke-linecap:butt;stroke-linejoin:round" fill="none" olab:comment=""/>
		<polyline points="4323,2815 4323,2778" style="stroke: #000080;stroke-width: 21;stroke-linecap:butt;stroke-linejoin:round" fill="none" olab:comment=""/>
		<polyline points="4323,2725 4323,2620" style="stroke: #000080;stroke-width: 21;stroke-linecap:butt;stroke-linejoin:round" fill="none" olab:comment=""/>
		<polyline points="4323,2568 4323,2531" style="stroke: #000080;stroke-width: 21;stroke-linecap:butt;stroke-linejoin:round" fill="none" olab:comment=""/>
		<polyline points="4323,2479 4323,2442" style="stroke: #000080;stroke-width: 21;stroke-linecap:butt;stroke-linejoin:round" fill="none" olab:comment=""/>
		<polyline points="4323,2389 4323,2284" style="stroke: #000080;stroke-width: 21;stroke-linecap:butt;stroke-linejoin:round" fill="none" olab:comment=""/>
		<polyline points="4323,2232 4323,2195" style="stroke: #000080;stroke-width: 21;stroke-linecap:butt;stroke-linejoin:round" fill="none" olab:comment=""/>
		<polyline points="4323,2143 4323,2106" style="stroke: #000080;stroke-width: 21;stroke-linecap:butt;stroke-linejoin:round" fill="none" olab:comment=""/>
		<polyline points="4323,2053 4323,1948" style="stroke: #000080;stroke-width: 21;stroke-linecap:butt;stroke-linejoin:round" fill="none" olab:comment=""/>
		<polyline points="4323,1896 4323,1859" style="stroke: #000080;stroke-width: 21;stroke-linecap:butt;stroke-linejoin:round" fill="none" olab:comment=""/>
		<polyline points="4323,1807 4323,1770" style="stroke: #000080;stroke-width: 21;stroke-linecap:butt;stroke-linejoin:round" fill="none" olab:comment=""/>
		<polyline points="4323,1717 4323,1612" style="stroke: #000080;stroke-width: 21;stroke-linecap:butt;stroke-linejoin:round" fill="none" olab:comment=""/>
		<polyline points="4323,1560 4323,1523" style="stroke: #000080;stroke-width: 21;stroke-linecap:butt;stroke-linejoin:round" fill="none" olab:comment=""/>
		<polyline points="4323,1471 4323,1434" style="stroke: #000080;stroke-width: 21;stroke-linecap:butt;stroke-linejoin:round" fill="none" olab:comment=""/>
		<polyline points="4323,1381 4323,1276" style="stroke: #000080;stroke-width: 21;stroke-linecap:butt;stroke-linejoin:round" fill="none" olab:comment=""/>
		<polyline points="4323,1224 4323,1187" style="stroke: #000080;stroke-width: 21;stroke-linecap:butt;stroke-linejoin:round" fill="none" olab:comment=""/>
		<polyline points="4323,1135 4323,1098" style="stroke: #000080;stroke-width: 21;stroke-linecap:butt;stroke-linejoin:round" fill="none" olab:comment=""/>
		<polyline points="4323,1045 4323,940" style="stroke: #000080;stroke-width: 21;stroke-linecap:butt;stroke-linejoin:round" fill="none" olab:comment=""/>
		<polyline points="4323,888 4323,851" style="stroke: #000080;stroke-width: 21;stroke-linecap:butt;stroke-linejoin:round" fill="none" olab:comment=""/>
		<polyline points="4323,799 4323,762" style="stroke: #000080;stroke-width: 21;stroke-linecap:butt;stroke-linejoin:round" fill="none" olab:comment=""/>
		<polyline points="4323,709 4323,604" style="stroke: #000080;stroke-width: 21;stroke-linecap:butt;stroke-linejoin:round" fill="none" olab:comment=""/>
		<polyline points="4323,552 4323,515" style="stroke: #000080;stroke-width: 21;stroke-linecap:butt;stroke-linejoin:round" fill="none" olab:comment=""/>
		<polyline points="4323,463 4323,426" style="stroke: #000080;stroke-width: 21;stroke-linecap:butt;stroke-linejoin:round" fill="none" olab:comment=""/>
		<polyline points="4323,373 4323,268" style="stroke: #000080;stroke-width: 21;stroke-linecap:butt;stroke-linejoin:round" fill="none" olab:comment=""/>
		<polyline points="4323,216 4323,199" style="stroke: #000080;stroke-width: 21;stroke-linecap:butt;stroke-linejoin:round" fill="none" olab:comment=""/>
		<polyline points="1691,3733 1691,3702" style="stroke: #000080;stroke-width: 25;stroke-linecap:butt;stroke-linejoin:round" fill="none" olab:comment=""/>
		<polyline points="1691,3677 1691,3646" style="stroke: #000080;stroke-width: 25;stroke-linecap:butt;stroke-linejoin:round" fill="none" olab:comment=""/>
		<polyline points="1691,3621 1691,3590" style="stroke: #000080;stroke-width: 25;stroke-linecap:butt;stroke-linejoin:round" fill="none" olab:comment=""/>
		<polyline points="1691,3565 1691,3534" style="stroke: #000080;stroke-width: 25;stroke-linecap:butt;stroke-linejoin:round" fill="none" olab:comment=""/>
		<polyline points="1691,3509 1691,3478" style="stroke: #000080;stroke-width: 25;stroke-linecap:butt;stroke-linejoin:round" fill="none" olab:comment=""/>
		<polyline points="1691,3453 1691,3422" style="stroke: #000080;stroke-width: 25;stroke-linecap:butt;stroke-linejoin:round" fill="none" olab:comment=""/>
		<polyline points="1691,3397 1691,3366" style="stroke: #000080;stroke-width: 25;stroke-linecap:butt;stroke-linejoin:round" fill="none" olab:comment=""/>
		<polyline points="1691,3341 1691,3310" style="stroke: #000080;stroke-width: 25;stroke-linecap:butt;stroke-linejoin:round" fill="none" olab:comment=""/>
		<polyline points="1691,3285 1691,3254" style="stroke: #000080;stroke-width: 25;stroke-linecap:butt;stroke-linejoin:round" fill="none" olab:comment=""/>
		<polyline points="1691,3229 1691,3198" style="stroke: #000080;stroke-width: 25;stroke-linecap:butt;stroke-linejoin:round" fill="none" olab:comment=""/>
		<polyline points="1691,3173 1691,3142" style="stroke: #000080;stroke-width: 25;stroke-linecap:butt;stroke-linejoin:round" fill="none" olab:comment=""/>
		<polyline points="1691,3117 1691,3086" style="stroke: #000080;stroke-width: 25;stroke-linecap:butt;stroke-linejoin:round" fill="none" olab:comment=""/>
		<polyline points="1691,3061 1691,3030" style="stroke: #000080;stroke-width: 25;stroke-linecap:butt;stroke-linejoin:round" fill="none" olab:comment=""/>
		<polyline points="1691,3005 1691,2974" style="stroke: #000080;stroke-width: 25;stroke-linecap:butt;stroke-linejoin:round" fill="none" olab:comment=""/>
		<polyline points="1691,2949 1691,2918" style="stroke: #000080;stroke-width: 25;stroke-linecap:butt;stroke-linejoin:round" fill="none" olab:comment=""/>
		<polyline points="1691,2893 1691,2862" style="stroke: #000080;stroke-width: 25;stroke-linecap:butt;stroke-linejoin:round" fill="none" olab:comment=""/>
		<polyline points="1691,2837 1691,2806" style="stroke: #000080;stroke-width: 25;stroke-linecap:butt;stroke-linejoin:round" fill="none" olab:comment=""/>
		<polyline points="1691,2781 1691,2750" style="stroke: #000080;stroke-width: 25;stroke-linecap:butt;stroke-linejoin:round" fill="none" olab:comment=""/>
		<polyline points="1691,2725 1691,2694" style="stroke: #000080;stroke-width: 25;stroke-linecap:butt;stroke-linejoin:round" fill="none" olab:comment=""/>
		<polyline points="1691,2669 1691,2638" style="stroke: #000080;stroke-width: 25;stroke-linecap:butt;stroke-linejoin:round" fill="none" olab:comment=""/>
		<polyline points="1691,2613 1691,2582" style="stroke: #000080;stroke-width: 25;stroke-linecap:butt;stroke-linejoin:round" fill="none" olab:comment=""/>
		<polyline points="1691,2557 1691,2526" style="stroke: #000080;stroke-width: 25;stroke-linecap:butt;stroke-linejoin:round" fill="none" olab:comment=""/>
		<polyline points="1691,2501 1691,2470" style="stroke: #000080;stroke-width: 25;stroke-linecap:butt;stroke-linejoin:round" fill="none" olab:comment=""/>
		<polyline points="1691,2445 1691,2414" style="stroke: #000080;stroke-width: 25;stroke-linecap:butt;stroke-linejoin:round" fill="none" olab:comment=""/>
		<polyline points="1691,2389 1691,2358" style="stroke: #000080;stroke-width: 25;stroke-linecap:butt;stroke-linejoin:round" fill="none" olab:comment=""/>
		<polyline points="1691,2333 1691,2302" style="stroke: #000080;stroke-width: 25;stroke-linecap:butt;stroke-linejoin:round" fill="none" olab:comment=""/>
		<polyline points="1691,2277 1691,2246" style="stroke: #000080;stroke-width: 25;stroke-linecap:butt;stroke-linejoin:round" fill="none" olab:comment=""/>
		<polyline points="1691,2221 1691,2190" style="stroke: #000080;stroke-width: 25;stroke-linecap:butt;stroke-linejoin:round" fill="none" olab:comment=""/>
		<polyline points="1691,2165 1691,2134" style="stroke: #000080;stroke-width: 25;stroke-linecap:butt;stroke-linejoin:round" fill="none" olab:comment=""/>
		<polyline points="1691,2109 1691,2078" style="stroke: #000080;stroke-width: 25;stroke-linecap:butt;stroke-linejoin:round" fill="none" olab:comment=""/>
		<polyline points="1691,2053 1691,2022" style="stroke: #000080;stroke-width: 25;stroke-linecap:butt;stroke-linejoin:round" fill="none" olab:comment=""/>
		<polyline points="1691,1997 1691,1966" style="stroke: #000080;stroke-width: 25;stroke-linecap:butt;stroke-linejoin:round" fill="none" olab:comment=""/>
		<polyline points="1691,1941 1691,1910" style="stroke: #000080;stroke-width: 25;stroke-linecap:butt;stroke-linejoin:round" fill="none" olab:comment=""/>
		<polyline points="1691,1885 1691,1854" style="stroke: #000080;stroke-width: 25;stroke-linecap:butt;stroke-linejoin:round" fill="none" olab:comment=""/>
		<polyline points="1691,1829 1691,1798" style="stroke: #000080;stroke-width: 25;stroke-linecap:butt;stroke-linejoin:round" fill="none" olab:comment=""/>
		<polyline points="1691,1773 1691,1742" style="stroke: #000080;stroke-width: 25;stroke-linecap:butt;stroke-linejoin:round" fill="none" olab:comment=""/>
		<polyline points="1691,1717 1691,1686" style="stroke: #000080;stroke-width: 25;stroke-linecap:butt;stroke-linejoin:round" fill="none" olab:comment=""/>
		<polyline points="1691,1661 1691,1630" style="stroke: #000080;stroke-width: 25;stroke-linecap:butt;stroke-linejoin:round" fill="none" olab:comment=""/>
		<polyline points="1691,1605 1691,1574" style="stroke: #000080;stroke-width: 25;stroke-linecap:butt;stroke-linejoin:round" fill="none" olab:comment=""/>
		<polyline points="1691,1549 1691,1518" style="stroke: #000080;stroke-width: 25;stroke-linecap:butt;stroke-linejoin:round" fill="none" olab:comment=""/>
		<polyline points="1691,1493 1691,1462" style="stroke: #000080;stroke-width: 25;stroke-linecap:butt;stroke-linejoin:round" fill="none" olab:comment=""/>
		<polyline points="1691,1437 1691,1406" style="stroke: #000080;stroke-width: 25;stroke-linecap:butt;stroke-linejoin:round" fill="none" olab:comment=""/>
		<polyline points="1691,1381 1691,1350" style="stroke: #000080;stroke-width: 25;stroke-linecap:butt;stroke-linejoin:round" fill="none" olab:comment=""/>
		<polyline points="1691,1325 1691,1294" style="stroke: #000080;stroke-width: 25;stroke-linecap:butt;stroke-linejoin:round" fill="none" olab:comment=""/>
		<polyline points="1691,1269 1691,1238" style="stroke: #000080;stroke-width: 25;stroke-linecap:butt;stroke-linejoin:round" fill="none" olab:comment=""/>
		<polyline points="1691,1213 1691,1182" style="stroke: #000080;stroke-width: 25;stroke-linecap:butt;stroke-linejoin:round" fill="none" olab:comment=""/>
		<polyline points="1691,1157 1691,1126" style="stroke: #000080;stroke-width: 25;stroke-linecap:butt;stroke-linejoin:round" fill="none" olab:comment=""/>
		<polyline points="1691,1101 1691,1070" style="stroke: #000080;stroke-width: 25;stroke-linecap:butt;stroke-linejoin:round" fill="none" olab:comment=""/>
		<polyline points="1691,1045 1691,1014" style="stroke: #000080;stroke-width: 25;stroke-linecap:butt;stroke-linejoin:round" fill="none" olab:comment=""/>
		<polyline points="1691,989 1691,958" style="stroke: #000080;stroke-width: 25;stroke-linecap:butt;stroke-linejoin:round" fill="none" olab:comment=""/>
		<polyline points="1691,933 1691,902" style="stroke: #000080;stroke-width: 25;stroke-linecap:butt;stroke-linejoin:round" fill="none" olab:comment=""/>
		<polyline points="1691,877 1691,846" style="stroke: #000080;stroke-width: 25;stroke-linecap:butt;stroke-linejoin:round" fill="none" olab:comment=""/>
		<polyline points="1691,821 1691,790" style="stroke: #000080;stroke-width: 25;stroke-linecap:butt;stroke-linejoin:round" fill="none" olab:comment=""/>
		<polyline points="1691,765 1691,734" style="stroke: #000080;stroke-width: 25;stroke-linecap:butt;stroke-linejoin:round" fill="none" olab:comment=""/>
		<polyline points="1691,709 1691,678" style="stroke: #000080;stroke-width: 25;stroke-linecap:butt;stroke-linejoin:round" fill="none" olab:comment=""/>
		<polyline points="1691,653 1691,622" style="stroke: #000080;stroke-width: 25;stroke-linecap:butt;stroke-linejoin:round" fill="none" olab:comment=""/>
		<polyline points="1691,597 1691,566" style="stroke: #000080;stroke-width: 25;stroke-linecap:butt;stroke-linejoin:round" fill="none" olab:comment=""/>
		<polyline points="1691,541 1691,510" style="stroke: #000080;stroke-width: 25;stroke-linecap:butt;stroke-linejoin:round" fill="none" olab:comment=""/>
		<polyline points="1691,485 1691,454" style="stroke: #000080;stroke-width: 25;stroke-linecap:butt;stroke-linejoin:round" fill="none" olab:comment=""/>
		<polyline points="1691,429 1691,398" style="stroke: #000080;stroke-width: 25;stroke-linecap:butt;stroke-linejoin:round" fill="none" olab:comment=""/>
		<polyline points="1691,373 1691,342" style="stroke: #000080;stroke-width: 25;stroke-linecap:butt;stroke-linejoin:round" fill="none" olab:comment=""/>
		<polyline points="1691,317 1691,286" style="stroke: #000080;stroke-width: 25;stroke-linecap:butt;stroke-linejoin:round" fill="none" olab:comment=""/>
		<polyline points="1691,261 1691,230" style="stroke: #000080;stroke-width: 25;stroke-linecap:butt;stroke-linejoin:round" fill="none" olab:comment=""/>
		<polyline points="1691,205 1691,199" style="stroke: #000080;stroke-width: 25;stroke-linecap:butt;stroke-linejoin:round" fill="none" olab:comment=""/>
		<defs>
			<mask id="Cp_1">
				<path d="M 1033,199 L 5420,199 5420,3734 1033,3734Z" fill="white"/>
			</mask>
		</defs>
		<g mask="url(#Cp_1)">
			<rect x="0" y="0" width="5945" height="4475" visibility="hidden" fill="none" opacity="0"/>
			<polyline points="1592,3380 1636,1057" fill="none" style="stroke-width: 33;stroke-linecap: round;stroke-dashoffset: 0;stroke-miterlimit:10;stroke-linejoin: round;stroke: #515151"/>
			<polyline points="1636,1057 1691,653" fill="none" style="stroke-width: 33;stroke-linecap: round;stroke-dashoffset: 0;stroke-miterlimit:10;stroke-linejoin: round;stroke: #515151"/>
		</g>
		<defs>
			<mask id="Cp_2">
				<rect x="1033" y="199" width="4387" height="3535" fill="white"/>
			</mask>
		</defs>
		<g mask="url(#Cp_2)">
			<rect x="0" y="0" width="5945" height="4475" visibility="hidden" fill="none" opacity="0"/>
			<polyline points="1691,653 1801,653" style="stroke: #515151;stroke-width: 33;stroke-linecap:round;stroke-linejoin:round" fill="none" olab:comment=""/>
		</g>
		<defs>
			<mask id="Cp_3">
				<path d="M 1033,199 L 5420,199 5420,3734 1033,3734Z" fill="white"/>
			</mask>
		</defs>
		<g mask="url(#Cp_3)">
			<rect x="0" y="0" width="5945" height="4475" visibility="hidden" fill="none" opacity="0"/>
			<polyline points="1801,653 1910,603" fill="none" style="stroke-width: 33;stroke-linecap: round;stroke-dashoffset: 0;stroke-miterlimit:10;stroke-linejoin: round;stroke: #515151"/>
		</g>
		<defs>
			<mask id="Cp_4">
				<rect x="1033" y="199" width="4387" height="3535" fill="white"/>
			</mask>
		</defs>
		<g mask="url(#Cp_4)">
			<rect x="0" y="0" width="5945" height="4475" visibility="hidden" fill="none" opacity="0"/>
			<polyline points="1910,603 2020,603" style="stroke: #515151;stroke-width: 33;stroke-linecap:round;stroke-linejoin:round" fill="none" olab:comment=""/>
		</g>
		<defs>
			<mask id="Cp_5">
				<path d="M 1033,199 L 5420,199 5420,3734 1033,3734Z" fill="white"/>
			</mask>
		</defs>
		<g mask="url(#Cp_5)">
			<rect x="0" y="0" width="5945" height="4475" visibility="hidden" fill="none" opacity="0"/>
			<polyline points="2020,603 2130,704" fill="none" style="stroke-width: 33;stroke-linecap: round;stroke-dashoffset: 0;stroke-miterlimit:10;stroke-linejoin: round;stroke: #515151"/>
		</g>
		<defs>
			<mask id="Cp_6">
				<rect x="1033" y="199" width="4387" height="3535" fill="white"/>
			</mask>
		</defs>
		<g mask="url(#Cp_6)">
			<rect x="0" y="0" width="5945" height="4475" visibility="hidden" fill="none" opacity="0"/>
			<polyline points="2130,704 2678,704" style="stroke: #515151;stroke-width: 33;stroke-linecap:round;stroke-linejoin:round" fill="none" olab:comment=""/>
		</g>
		<defs>
			<mask id="Cp_7">
				<path d="M 1033,199 L 5420,199 5420,3734 1033,3734Z" fill="white"/>
			</mask>
		</defs>
		<g mask="url(#Cp_7)">
			<rect x="0" y="0" width="5945" height="4475" visibility="hidden" fill="none" opacity="0"/>
			<polyline points="2678,704 3226,855" fill="none" style="stroke-width: 33;stroke-linecap: round;stroke-dashoffset: 0;stroke-miterlimit:10;stroke-linejoin: round;stroke: #515151"/>
			<polyline points="3226,855 3774,956" fill="none" style="stroke-width: 33;stroke-linecap: round;stroke-dashoffset: 0;stroke-miterlimit:10;stroke-linejoin: round;stroke: #515151"/>
			<polyline points="3774,956 4323,1259" fill="none" style="stroke-width: 33;stroke-linecap: round;stroke-dashoffset: 0;stroke-miterlimit:10;stroke-linejoin: round;stroke: #515151"/>
			<polyline points="4323,1259 4432,1360" fill="none" style="stroke-width: 33;stroke-linecap: round;stroke-dashoffset: 0;stroke-miterlimit:10;stroke-linejoin: round;stroke: #515151"/>
		</g>
		<defs>
			<mask id="Cp_8">
				<rect x="1033" y="199" width="4387" height="3535" fill="white"/>
			</mask>
		</defs>
		<g mask="url(#Cp_8)">
			<rect x="0" y="0" width="5945" height="4475" visibility="hidden" fill="none" opacity="0"/>
			<polyline points="4432,1360 4542,1360" style="stroke: #515151;stroke-width: 33;stroke-linecap:round;stroke-linejoin:round" fill="none" olab:comment=""/>
			<polyline points="4542,1360 4651,1360" style="stroke: #515151;stroke-width: 33;stroke-linecap:round;stroke-linejoin:round" fill="none" olab:comment=""/>
		</g>
		<defs>
			<mask id="Cp_9">
				<path d="M 1033,199 L 5420,199 5420,3734 1033,3734Z" fill="white"/>
			</mask>
		</defs>
		<g mask="url(#Cp_9)">
			<rect x="0" y="0" width="5945" height="4475" visibility="hidden" fill="none" opacity="0"/>
			<polyline points="4651,1360 4761,1461" fill="none" style="stroke-width: 33;stroke-linecap: round;stroke-dashoffset: 0;stroke-miterlimit:10;stroke-linejoin: round;stroke: #515151"/>
			<polyline points="4761,1461 4871,1663" fill="none" style="stroke-width: 33;stroke-linecap: round;stroke-dashoffset: 0;stroke-miterlimit:10;stroke-linejoin: round;stroke: #515151"/>
			<polyline points="4871,1663 5090,1714" fill="none" style="stroke-width: 33;stroke-linecap: round;stroke-dashoffset: 0;stroke-miterlimit:10;stroke-linejoin: round;stroke: #515151"/>
			<circle cx="1592" cy="3380" r="58" fill="#515151"/>
			<circle cx="1636" cy="1057" r="58" fill="#515151"/>
			<circle cx="1691" cy="653" r="58" fill="#515151"/>
			<circle cx="1801" cy="653" r="58" fill="#515151"/>
			<circle cx="1910" cy="603" r="58" fill="#515151"/>
			<circle cx="2020" cy="603" r="58" fill="#515151"/>
			<circle cx="2130" cy="704" r="58" fill="#515151"/>
			<circle cx="2678" cy="704" r="58" fill="#515151"/>
			<circle cx="3226" cy="855" r="58" fill="#515151"/>
			<circle cx="3774" cy="956" r="58" fill="#515151"/>
			<circle cx="4323" cy="1259" r="58" fill="#515151"/>
			<circle cx="4432" cy="1360" r="58" fill="#515151"/>
			<circle cx="4542" cy="1360" r="58" fill="#515151"/>
			<circle cx="4651" cy="1360" r="58" fill="#515151"/>
			<circle cx="4761" cy="1461" r="58" fill="#515151"/>
			<circle cx="4871" cy="1663" r="58" fill="#515151"/>
			<circle cx="5090" cy="1714" r="58" fill="#515151"/>
			<polyline points="1592,3394 1636,3390 1691,3388 1801,3386 1910,3386 2020,3386 2130,3386 2678,3386 3226,3385 3774,3385 4323,3384 4432,3384 4542,3379 4651,3362 4761,3213 4871,454 5090,175" fill="none" style="stroke-width: 33;stroke-linecap: round;stroke-dashoffset: 0;stroke-miterlimit:10;stroke-linejoin: round;stroke: #F14040"/>
			<circle cx="1592" cy="3394" r="58" fill="#F14040"/>
			<circle cx="1636" cy="3390" r="58" fill="#F14040"/>
			<circle cx="1691" cy="3388" r="58" fill="#F14040"/>
			<circle cx="1801" cy="3386" r="58" fill="#F14040"/>
			<circle cx="1910" cy="3386" r="58" fill="#F14040"/>
			<circle cx="2020" cy="3386" r="58" fill="#F14040"/>
			<circle cx="2130" cy="3386" r="58" fill="#F14040"/>
			<circle cx="2678" cy="3386" r="58" fill="#F14040"/>
			<circle cx="3226" cy="3385" r="58" fill="#F14040"/>
			<circle cx="3774" cy="3385" r="58" fill="#F14040"/>
			<circle cx="4323" cy="3384" r="58" fill="#F14040"/>
			<circle cx="4432" cy="3384" r="58" fill="#F14040"/>
			<circle cx="4542" cy="3379" r="58" fill="#F14040"/>
			<circle cx="4651" cy="3362" r="58" fill="#F14040"/>
			<circle cx="4761" cy="3213" r="58" fill="#F14040"/>
			<circle cx="4871" cy="454" r="58" fill="#F14040"/>
			<circle cx="5090" cy="175" r="58" fill="#F14040"/>
		</g>
		<polyline points="1033,3733 5419,3733" style="stroke: black;stroke-width: 13;stroke-linecap:square;stroke-linejoin:round" fill="none" olab:comment=""/>
		<polyline points="1033,3733 1033,3767" style="stroke: black;stroke-width: 13;stroke-linecap:butt;stroke-linejoin:round" fill="none" olab:comment=""/>
		<polyline points="2130,3733 2130,3767" style="stroke: black;stroke-width: 13;stroke-linecap:butt;stroke-linejoin:round" fill="none" olab:comment=""/>
		<polyline points="3226,3733 3226,3767" style="stroke: black;stroke-width: 13;stroke-linecap:butt;stroke-linejoin:round" fill="none" olab:comment=""/>
		<polyline points="4323,3733 4323,3767" style="stroke: black;stroke-width: 13;stroke-linecap:butt;stroke-linejoin:round" fill="none" olab:comment=""/>
		<polyline points="5419,3733 5419,3767" style="stroke: black;stroke-width: 13;stroke-linecap:butt;stroke-linejoin:round" fill="none" olab:comment=""/>
		<polyline points="1581,3733 1581,3802" style="stroke: black;stroke-width: 13;stroke-linecap:butt;stroke-linejoin:round" fill="none" olab:comment=""/>
		<polyline points="2678,3733 2678,3802" style="stroke: black;stroke-width: 13;stroke-linecap:butt;stroke-linejoin:round" fill="none" olab:comment=""/>
		<polyline points="3774,3733 3774,3802" style="stroke: black;stroke-width: 13;stroke-linecap:butt;stroke-linejoin:round" fill="none" olab:comment=""/>
		<polyline points="4871,3733 4871,3802" style="stroke: black;stroke-width: 13;stroke-linecap:butt;stroke-linejoin:round" fill="none" olab:comment=""/>
		<polyline points="1033,199 5419,199" style="stroke: black;stroke-width: 13;stroke-linecap:square;stroke-linejoin:round" fill="none" olab:comment=""/>
		<polyline points="1033,199 1033,233" style="stroke: black;stroke-width: 13;stroke-linecap:butt;stroke-linejoin:round" fill="none" olab:comment=""/>
		<polyline points="2130,199 2130,233" style="stroke: black;stroke-width: 13;stroke-linecap:butt;stroke-linejoin:round" fill="none" olab:comment=""/>
		<polyline points="3226,199 3226,233" style="stroke: black;stroke-width: 13;stroke-linecap:butt;stroke-linejoin:round" fill="none" olab:comment=""/>
		<polyline points="4323,199 4323,233" style="stroke: black;stroke-width: 13;stroke-linecap:butt;stroke-linejoin:round" fill="none" olab:comment=""/>
		<polyline points="5419,199 5419,233" style="stroke: black;stroke-width: 13;stroke-linecap:butt;stroke-linejoin:round" fill="none" olab:comment=""/>
		<polyline points="1581,199 1581,268" style="stroke: black;stroke-width: 13;stroke-linecap:butt;stroke-linejoin:round" fill="none" olab:comment=""/>
		<polyline points="2678,199 2678,268" style="stroke: black;stroke-width: 13;stroke-linecap:butt;stroke-linejoin:round" fill="none" olab:comment=""/>
		<polyline points="3774,199 3774,268" style="stroke: black;stroke-width: 13;stroke-linecap:butt;stroke-linejoin:round" fill="none" olab:comment=""/>
		<polyline points="4871,199 4871,268" style="stroke: black;stroke-width: 13;stroke-linecap:butt;stroke-linejoin:round" fill="none" olab:comment=""/>
		<polyline points="1033,3733 1033,199" style="stroke: #515151;stroke-width: 13;stroke-linecap:square;stroke-linejoin:round" fill="none" olab:comment=""/>
		<polyline points="1033,3733 999,3733" style="stroke: #515151;stroke-width: 13;stroke-linecap:butt;stroke-linejoin:round" fill="none" olab:comment=""/>
		<polyline points="1033,2723 999,2723" style="stroke: #515151;stroke-width: 13;stroke-linecap:butt;stroke-linejoin:round" fill="none" olab:comment=""/>
		<polyline points="1033,1714 999,1714" style="stroke: #515151;stroke-width: 13;stroke-linecap:butt;stroke-linejoin:round" fill="none" olab:comment=""/>
		<polyline points="1033,704 999,704" style="stroke: #515151;stroke-width: 13;stroke-linecap:butt;stroke-linejoin:round" fill="none" olab:comment=""/>
		<polyline points="1033,3228 964,3228" style="stroke: #515151;stroke-width: 13;stroke-linecap:butt;stroke-linejoin:round" fill="none" olab:comment=""/>
		<polyline points="1033,2218 964,2218" style="stroke: #515151;stroke-width: 13;stroke-linecap:butt;stroke-linejoin:round" fill="none" olab:comment=""/>
		<polyline points="1033,1209 964,1209" style="stroke: #515151;stroke-width: 13;stroke-linecap:butt;stroke-linejoin:round" fill="none" olab:comment=""/>
		<polyline points="1033,199 964,199" style="stroke: #515151;stroke-width: 13;stroke-linecap:butt;stroke-linejoin:round" fill="none" olab:comment=""/>
		<polyline points="5419,3733 5419,199" style="stroke: #F14040;stroke-width: 13;stroke-linecap:square;stroke-linejoin:round" fill="none" olab:comment=""/>
		<polyline points="5419,3565 5385,3565" style="stroke: #F14040;stroke-width: 13;stroke-linecap:butt;stroke-linejoin:round" fill="none" olab:comment=""/>
		<polyline points="5419,3228 5385,3228" style="stroke: #F14040;stroke-width: 13;stroke-linecap:butt;stroke-linejoin:round" fill="none" olab:comment=""/>
		<polyline points="5419,2892 5385,2892" style="stroke: #F14040;stroke-width: 13;stroke-linecap:butt;stroke-linejoin:round" fill="none" olab:comment=""/>
		<polyline points="5419,2555 5385,2555" style="stroke: #F14040;stroke-width: 13;stroke-linecap:butt;stroke-linejoin:round" fill="none" olab:comment=""/>
		<polyline points="5419,2218 5385,2218" style="stroke: #F14040;stroke-width: 13;stroke-linecap:butt;stroke-linejoin:round" fill="none" olab:comment=""/>
		<polyline points="5419,1882 5385,1882" style="stroke: #F14040;stroke-width: 13;stroke-linecap:butt;stroke-linejoin:round" fill="none" olab:comment=""/>
		<polyline points="5419,1545 5385,1545" style="stroke: #F14040;stroke-width: 13;stroke-linecap:butt;stroke-linejoin:round" fill="none" olab:comment=""/>
		<polyline points="5419,1209 5385,1209" style="stroke: #F14040;stroke-width: 13;stroke-linecap:butt;stroke-linejoin:round" fill="none" olab:comment=""/>
		<polyline points="5419,872 5385,872" style="stroke: #F14040;stroke-width: 13;stroke-linecap:butt;stroke-linejoin:round" fill="none" olab:comment=""/>
		<polyline points="5419,536 5385,536" style="stroke: #F14040;stroke-width: 13;stroke-linecap:butt;stroke-linejoin:round" fill="none" olab:comment=""/>
		<polyline points="5419,199 5385,199" style="stroke: #F14040;stroke-width: 13;stroke-linecap:butt;stroke-linejoin:round" fill="none" olab:comment=""/>
		<polyline points="5419,3733 5350,3733" style="stroke: #F14040;stroke-width: 13;stroke-linecap:butt;stroke-linejoin:round" fill="none" olab:comment=""/>
		<polyline points="5419,3396 5350,3396" style="stroke: #F14040;stroke-width: 13;stroke-linecap:butt;stroke-linejoin:round" fill="none" olab:comment=""/>
		<polyline points="5419,3060 5350,3060" style="stroke: #F14040;stroke-width: 13;stroke-linecap:butt;stroke-linejoin:round" fill="none" olab:comment=""/>
		<polyline points="5419,2723 5350,2723" style="stroke: #F14040;stroke-width: 13;stroke-linecap:butt;stroke-linejoin:round" fill="none" olab:comment=""/>
		<polyline points="5419,2387 5350,2387" style="stroke: #F14040;stroke-width: 13;stroke-linecap:butt;stroke-linejoin:round" fill="none" olab:comment=""/>
		<polyline points="5419,2050 5350,2050" style="stroke: #F14040;stroke-width: 13;stroke-linecap:butt;stroke-linejoin:round" fill="none" olab:comment=""/>
		<polyline points="5419,1714 5350,1714" style="stroke: #F14040;stroke-width: 13;stroke-linecap:butt;stroke-linejoin:round" fill="none" olab:comment=""/>
		<polyline points="5419,1377 5350,1377" style="stroke: #F14040;stroke-width: 13;stroke-linecap:butt;stroke-linejoin:round" fill="none" olab:comment=""/>
		<polyline points="5419,1040 5350,1040" style="stroke: #F14040;stroke-width: 13;stroke-linecap:butt;stroke-linejoin:round" fill="none" olab:comment=""/>
		<polyline points="5419,704 5350,704" style="stroke: #F14040;stroke-width: 13;stroke-linecap:butt;stroke-linejoin:round" fill="none" olab:comment=""/>
		<polyline points="5419,367 5350,367" style="stroke: #F14040;stroke-width: 13;stroke-linecap:butt;stroke-linejoin:round" fill="none" olab:comment=""/>
		<text x="1466" dominant-baseline="auto" y="3994" fill="black" font-family="Times New Roman,'MS PGothic',SimSun" font-size="184" font-weight="700" olab:comment="">
			<tspan x="1466" style="font-kerning:none">0.0</tspan>
		</text>
		<text x="2563" dominant-baseline="auto" y="3994" fill="black" font-family="Times New Roman,'MS PGothic',SimSun" font-size="184" font-weight="700" olab:comment="">
			<tspan x="2563" style="font-kerning:none">0.1</tspan>
		</text>
		<text x="3659" dominant-baseline="auto" y="3994" fill="black" font-family="Times New Roman,'MS PGothic',SimSun" font-size="184" font-weight="700" olab:comment="">
			<tspan x="3659" style="font-kerning:none">0.2</tspan>
		</text>
		<text x="4756" dominant-baseline="auto" y="3994" fill="black" font-family="Times New Roman,'MS PGothic',SimSun" font-size="184" font-weight="700" olab:comment="">
			<tspan x="4756" style="font-kerning:none">0.3</tspan>
		</text>
		<text x="732" dominant-baseline="auto" y="3284" fill="#515151" font-family="Times New Roman,'MS PGothic',SimSun" font-size="184" font-weight="700" olab:comment="">
			<tspan x="732" style="font-kerning:none">75</tspan>
		</text>
		<text x="732" dominant-baseline="auto" y="2274" fill="#515151" font-family="Times New Roman,'MS PGothic',SimSun" font-size="184" font-weight="700" olab:comment="">
			<tspan x="732" style="font-kerning:none">80</tspan>
		</text>
		<text x="732" dominant-baseline="auto" y="1265" fill="#515151" font-family="Times New Roman,'MS PGothic',SimSun" font-size="184" font-weight="700" olab:comment="">
			<tspan x="732" style="font-kerning:none">85</tspan>
		</text>
		<text x="732" dominant-baseline="auto" y="255" fill="#515151" font-family="Times New Roman,'MS PGothic',SimSun" font-size="184" font-weight="700" olab:comment="">
			<tspan x="732" style="font-kerning:none">90</tspan>
		</text>
		<text x="5494" dominant-baseline="auto" y="3793" fill="#F14040" font-family="宋体,'MS PGothic',SimSun" font-size="150" font-weight="400" olab:comment="">
			<tspan x="5494" style="font-kerning:none">−2</tspan>
		</text>
		<text x="5494" dominant-baseline="auto" y="3456" fill="#F14040" font-family="宋体,'MS PGothic',SimSun" font-size="150" font-weight="400" olab:comment="">
			<tspan x="5494" style="font-kerning:none">0</tspan>
		</text>
		<text x="5494" dominant-baseline="auto" y="3120" fill="#F14040" font-family="宋体,'MS PGothic',SimSun" font-size="150" font-weight="400" olab:comment="">
			<tspan x="5494" style="font-kerning:none">2</tspan>
		</text>
		<text x="5494" dominant-baseline="auto" y="2783" fill="#F14040" font-family="宋体,'MS PGothic',SimSun" font-size="150" font-weight="400" olab:comment="">
			<tspan x="5494" style="font-kerning:none">4</tspan>
		</text>
		<text x="5494" dominant-baseline="auto" y="2447" fill="#F14040" font-family="宋体,'MS PGothic',SimSun" font-size="150" font-weight="400" olab:comment="">
			<tspan x="5494" style="font-kerning:none">6</tspan>
		</text>
		<text x="5494" dominant-baseline="auto" y="2110" fill="#F14040" font-family="宋体,'MS PGothic',SimSun" font-size="150" font-weight="400" olab:comment="">
			<tspan x="5494" style="font-kerning:none">8</tspan>
		</text>
		<text x="5494" dominant-baseline="auto" y="1774" fill="#F14040" font-family="宋体,'MS PGothic',SimSun" font-size="150" font-weight="400" olab:comment="">
			<tspan x="5494" style="font-kerning:none">10</tspan>
		</text>
		<text x="5494" dominant-baseline="auto" y="1437" fill="#F14040" font-family="宋体,'MS PGothic',SimSun" font-size="150" font-weight="400" olab:comment="">
			<tspan x="5494" style="font-kerning:none">12</tspan>
		</text>
		<text x="5494" dominant-baseline="auto" y="1100" fill="#F14040" font-family="宋体,'MS PGothic',SimSun" font-size="150" font-weight="400" olab:comment="">
			<tspan x="5494" style="font-kerning:none">14</tspan>
		</text>
		<text x="5494" dominant-baseline="auto" y="764" fill="#F14040" font-family="宋体,'MS PGothic',SimSun" font-size="150" font-weight="400" olab:comment="">
			<tspan x="5494" style="font-kerning:none">16</tspan>
		</text>
		<text x="5494" dominant-baseline="auto" y="427" fill="#F14040" font-family="宋体,'MS PGothic',SimSun" font-size="150" font-weight="400" olab:comment="">
			<tspan x="5494" style="font-kerning:none">18</tspan>
		</text>
		<text x="0" dominant-baseline="auto" y="0" fill="#F14040" font-family="Times New Roman,'MS PGothic',SimSun" font-size="250" font-weight="700" transform="matrix(-1.83698e-16 -1 0.999999 -1.83698e-16 5884 4441)" olab:comment="">
			<tspan x="0" style="white-space:pre;font-kerning:none" xml:space="preserve">Unlearning Model: Approximation Error</tspan>
		</text>
		<text x="0" dominant-baseline="auto" y="0" fill="black" font-family="Times New Roman,'MS PGothic',SimSun" font-size="259" font-weight="700" transform="matrix(-1.83698e-16 -1 0.999999 -1.83698e-16 636 3733)" olab:comment="">
			<tspan x="0" style="white-space:pre;font-kerning:none" xml:space="preserve">Learning Model: Test Accuracy</tspan>
		</text>
		<text x="2797" dominant-baseline="auto" y="4361" fill="black" font-family="Times New Roman,'MS PGothic',SimSun" font-size="250" font-weight="700" olab:comment="">
			<tspan x="2797" style="font-kerning:none">Stepsize</tspan>
		</text>
		<text x="4139" dominant-baseline="auto" y="146" fill="black" font-family="Times New Roman,'MS PGothic',SimSun" font-size="184" font-weight="700" olab:comment="">
			<tspan x="4139" style="font-kerning:none">0.25</tspan>
		</text>
		<text x="1513" dominant-baseline="auto" y="146" fill="black" font-family="Times New Roman,'MS PGothic',SimSun" font-size="184" font-weight="700" olab:comment="">
			<tspan x="1513" style="font-kerning:none">0.01</tspan>
		</text>
	</svg>
</svg>

